<svg width="15" height="22" viewBox="0 0 15 22" fill="none" xmlns="http://www.w3.org/2000/svg">
<path d="M9.85311 4.57363L9.61928 4.76158L9.61936 4.76168L9.85311 4.57363ZM9.84865 4.56808L9.61481 4.75602L9.61482 4.75602L9.84865 4.56808ZM14.027 15.9959L13.734 15.9316L13.7339 15.9316L14.027 15.9959ZM0.605523 15.9959L0.31247 16.06L0.312473 16.0601L0.605523 15.9959ZM4.77474 4.57884L5.00861 4.76674L5.00861 4.76673L4.77474 4.57884ZM4.77892 4.57363L4.54516 4.3856L4.54505 4.38574L4.77892 4.57363ZM6.97039 1.24652L7.25938 1.32703L7.25957 1.32635L6.97039 1.24652ZM7.66165 1.24652L7.37258 1.32679L7.37265 1.32703L7.66165 1.24652ZM13.3273 15.8627V15.5627H13.086L13.0343 15.7984L13.3273 15.8627ZM13.3288 15.8627V16.1627H13.5702L13.6218 15.9269L13.3288 15.8627ZM9.2807 4.97111L9.04691 5.15911L9.04695 5.15916L9.2807 4.97111ZM7.31599 2.24756L7.58093 2.10682L7.31613 1.60836L7.05111 2.1067L7.31599 2.24756ZM5.3508 4.97111L5.11701 4.78311L5.11694 4.78321L5.3508 4.97111ZM5.34602 4.97706L5.11216 4.78915L5.11215 4.78917L5.34602 4.97706ZM1.30465 15.8627L1.0116 15.9269L1.01162 15.927L1.30465 15.8627ZM10.0869 4.38569L10.0825 4.38013L9.61482 4.75602L9.61928 4.76158L10.0869 4.38569ZM14.32 16.0601C15.429 11.0036 12.2877 7.12124 10.0869 4.38559L9.61936 4.76168C11.8493 7.53358 14.7729 11.1944 13.734 15.9316L14.32 16.0601ZM7.31626 21.2736C10.8508 21.2736 13.6231 19.2391 14.32 16.0601L13.7339 15.9316C13.1058 18.797 10.6101 20.6736 7.31626 20.6736V21.2736ZM0.312473 16.0601C1.00892 19.2392 3.78174 21.2736 7.31626 21.2736V20.6736C4.02235 20.6736 1.52628 18.797 0.898574 15.9317L0.312473 16.0601ZM4.54087 4.39094C2.34187 7.12789 -0.794324 11.0067 0.31247 16.06L0.898577 15.9317C-0.138341 11.1974 2.78045 7.53998 5.00861 4.76674L4.54087 4.39094ZM4.54505 4.38574L4.54087 4.39094L5.00861 4.76673L5.01279 4.76153L4.54505 4.38574ZM6.68139 1.16602C6.56706 1.57643 6.30252 2.05186 5.92162 2.59986C5.54283 3.14483 5.06626 3.73779 4.54516 4.3856L5.01268 4.76167C5.53015 4.11837 6.02111 3.50799 6.4143 2.9423C6.80539 2.37963 7.1173 1.83706 7.25938 1.32703L6.68139 1.16602ZM7.95071 1.16626C7.85932 0.837106 7.53901 0.726855 7.31584 0.726855C7.09272 0.726855 6.77217 0.83713 6.6812 1.1667L7.25957 1.32635C7.2558 1.33999 7.24682 1.34409 7.25317 1.34036C7.26263 1.33479 7.28474 1.32686 7.31584 1.32686C7.34693 1.32686 7.36912 1.33479 7.37871 1.34042C7.3852 1.34423 7.37633 1.34029 7.37258 1.32679L7.95071 1.16626ZM10.0825 4.38014C9.56253 3.73324 9.08699 3.14135 8.70895 2.59733C8.32882 2.05031 8.06479 1.57578 7.95064 1.16602L7.37265 1.32703C7.51455 1.83639 7.82592 2.37804 8.21623 2.93972C8.60863 3.5044 9.09857 4.11372 9.61481 4.75602L10.0825 4.38014ZM13.0343 15.7984C12.4766 18.3421 10.2563 20.0071 7.31599 20.0071V20.6071C10.4951 20.6071 12.9936 18.7859 13.6204 15.9269L13.0343 15.7984ZM13.3288 15.5627H13.3273V16.1627H13.3288V15.5627ZM9.04695 5.15916C11.3154 7.97902 14.0091 11.3541 13.0357 15.7985L13.6218 15.9269C14.6653 11.1624 11.7524 7.56499 9.51445 4.78307L9.04695 5.15916ZM7.05105 2.3883C7.50551 3.2438 8.24895 4.16681 9.04691 5.15911L9.51449 4.78311C8.70413 3.77541 8.00286 2.9011 7.58093 2.10682L7.05105 2.3883ZM5.58458 5.15911C6.38257 4.16679 7.12595 3.24384 7.58086 2.38842L7.05111 2.1067C6.62867 2.90106 5.92735 3.77544 5.11701 4.78311L5.58458 5.15911ZM5.57988 5.16497L5.58466 5.15902L5.11694 4.78321L5.11216 4.78915L5.57988 5.16497ZM1.5977 15.7985C0.625011 11.3572 3.31371 7.98559 5.57989 5.16496L5.11215 4.78917C2.87647 7.57184 -0.0311413 11.1658 1.0116 15.9269L1.5977 15.7985ZM7.31599 20.0071C4.37577 20.0071 2.15535 18.34 1.59768 15.7984L1.01162 15.927C1.63842 18.7836 4.13676 20.6071 7.31599 20.6071V20.0071Z" fill="#EC6461"/>
<path d="M7.00722 17.9246C6.86897 17.9077 3.62315 17.4703 3.62315 14.017C3.62794 13.8956 3.56094 13.7814 3.44848 13.7194C3.33602 13.6573 3.19607 13.6573 3.08361 13.7194C2.97115 13.7814 2.90415 13.8956 2.90893 14.017C2.90893 18.0454 6.87376 18.5779 6.91394 18.5828C6.92981 18.5846 6.94579 18.5855 6.96178 18.5854C7.14946 18.585 7.30477 18.4497 7.31736 18.2757C7.32996 18.1017 7.19554 17.9484 7.00962 17.9246H7.00722Z" stroke="#EC6461" stroke-width="0.6"/>
</svg>
