<svg width="38" height="38" viewBox="0 0 38 38" fill="none" xmlns="http://www.w3.org/2000/svg">
<path fill-rule="evenodd" clip-rule="evenodd" d="M37.9988 28.4503V34.1708C38.0032 35.2446 37.5537 36.2706 36.7609 36.9965C35.968 37.7225 34.9052 38.0812 33.8336 37.9845C27.9543 37.3469 22.3068 35.3419 17.3449 32.1305C12.7285 29.2029 8.81461 25.2967 5.88115 20.6894C2.65215 15.7149 0.642672 10.0511 0.0155216 4.15711C-0.0810163 3.09094 0.275887 2.03336 0.999047 1.24273C1.72221 0.45209 2.74503 0.00119561 3.81767 0.000187479H9.54956C11.4676 -0.0186524 13.1024 1.38449 13.3708 3.27996C13.6127 5.11065 14.0614 6.90816 14.7083 8.63819C15.2332 10.0319 14.8974 11.603 13.8485 12.6616L11.422 15.0833C14.1419 19.8572 18.1024 23.8099 22.8857 26.5244L25.3122 24.1027C26.373 23.0558 27.9472 22.7207 29.3437 23.2446C31.0771 23.8902 32.8782 24.3379 34.7125 24.5794C36.6338 24.8499 38.0469 26.5144 37.9988 28.4503Z" fill="#FF3737"/>
</svg>
