<svg width="260" height="182" viewBox="0 0 260 182" fill="none" xmlns="http://www.w3.org/2000/svg">
<path fill-rule="evenodd" clip-rule="evenodd" d="M259.578 147.218L221 58.253V0H162.5V39H208V52H51.597C42.835 52 35.113 57.6485 32.591 65.897L0.851485 156.897C-2.97052 169.41 6.56499 182 19.851 182H164.19C172.952 182 180.674 176.352 183.189 168.103L214.409 78.8385L244.354 145.457L198.25 159.25L191.75 175.5L255.411 155.714L255.404 155.688L255.444 155.675L255.704 155.584C256.511 155.295 257.254 154.848 257.887 154.269C258.52 153.69 259.032 152.991 259.393 152.213C259.753 151.434 259.955 150.592 259.987 149.734C260.019 148.877 259.88 148.022 259.578 147.218ZM97.695 141.427C97.4714 142.26 97.416 143.13 97.532 143.985C97.648 144.84 97.9332 145.664 98.3708 146.408C98.8084 147.151 99.3898 147.801 100.081 148.317C100.772 148.834 101.559 149.208 102.396 149.417C103.234 149.627 104.104 149.667 104.957 149.536C105.81 149.406 106.629 149.106 107.365 148.656C108.101 148.206 108.74 147.613 109.245 146.914C109.75 146.214 110.11 145.42 110.305 144.579L115.57 123.5H136.5C138.224 123.5 139.877 122.815 141.096 121.596C142.315 120.377 143 118.724 143 117C143 115.276 142.315 113.623 141.096 112.404C139.877 111.185 138.224 110.5 136.5 110.5H118.82L123.305 92.5795C123.529 91.746 123.584 90.8763 123.468 90.0212C123.352 89.1661 123.067 88.3426 122.629 87.5988C122.192 86.8551 121.61 86.2059 120.919 85.6892C120.228 85.1725 119.441 84.7986 118.604 84.5892C117.766 84.38 116.896 84.3394 116.043 84.4701C115.19 84.6008 114.371 84.9 113.635 85.3503C112.899 85.8007 112.26 86.393 111.755 87.093C111.25 87.7929 110.89 88.5863 110.695 89.427L105.43 110.5H84.5C82.7761 110.5 81.1228 111.185 79.9038 112.404C78.6848 113.623 78 115.276 78 117C78 118.724 78.6848 120.377 79.9038 121.596C81.1228 122.815 82.7761 123.5 84.5 123.5H102.18L97.695 141.427Z" fill="#FF3737"/>
</svg>
