<svg width="17" height="22" viewBox="0 0 17 22" fill="none" xmlns="http://www.w3.org/2000/svg">
<path fill-rule="evenodd" clip-rule="evenodd" d="M13.3446 2.38735L15.1874 4.51153C15.4029 4.75982 15.7583 4.76672 15.9813 4.52693C16.2044 4.28714 16.2106 3.89147 15.9951 3.64318L13.9504 1.28624C13.6192 0.904587 13.0699 0.904587 12.7388 1.28624L10.6939 3.64318C10.4785 3.89147 10.4847 4.28714 10.7078 4.52693C10.9308 4.76672 11.2862 4.75982 11.5017 4.51153L13.3446 2.38735ZM0.430176 4.74999C0.430176 3.36928 1.43568 2.24999 2.67603 2.24999H7.72921C8.0393 2.24999 8.29068 2.5298 8.29068 2.87499C8.29068 3.22017 8.0393 3.49999 7.72921 3.49999H2.67603C2.05586 3.49999 1.5531 4.05963 1.5531 4.74999V17.25C1.5531 17.9404 2.05586 18.5 2.67603 18.5H7.72921C8.0393 18.5 8.29068 18.7798 8.29068 19.125C8.29068 19.4702 8.0393 19.75 7.72921 19.75H2.67603C1.43568 19.75 0.430176 18.6308 0.430176 17.25V4.74999ZM13.3468 4.75C13.6569 4.75 13.9082 5.02981 13.9082 5.375V7.25C13.9082 7.59518 13.6569 7.875 13.3468 7.875C13.0367 7.875 12.7853 7.59518 12.7853 7.25V5.375C12.7853 5.02981 13.0367 4.75 13.3468 4.75ZM13.3468 14.125C13.6569 14.125 13.9082 14.4048 13.9082 14.75V16.625C13.9082 16.9701 13.6569 17.25 13.3468 17.25C13.0367 17.25 12.7853 16.9701 12.7853 16.625V14.75C12.7853 14.4048 13.0367 14.125 13.3468 14.125ZM13.3468 9.75C13.6569 9.75 13.9082 10.0298 13.9082 10.375V11.625C13.9082 11.9701 13.6569 12.25 13.3468 12.25C13.0367 12.25 12.7853 11.9701 12.7853 11.625V10.375C12.7853 10.0298 13.0367 9.75 13.3468 9.75ZM13.3446 19.6129L15.1874 17.4887C15.4029 17.2404 15.7583 17.2335 15.9813 17.4732C16.2044 17.7131 16.2106 18.1087 15.9951 18.357L13.9504 20.714C13.6192 21.0956 13.0699 21.0956 12.7388 20.714L10.6939 18.357C10.4785 18.1087 10.4847 17.7131 10.7078 17.4732C10.9308 17.2335 11.2862 17.2404 11.5017 17.4887L13.3446 19.6129Z" fill="#EC6461"/>
<path d="M15.1874 4.51153L14.9986 4.67536L14.9986 4.6754L15.1874 4.51153ZM13.3446 2.38735L13.5334 2.22352L13.3446 2.00585L13.1557 2.22352L13.3446 2.38735ZM15.9813 4.52693L15.7983 4.35663L15.7983 4.35667L15.9813 4.52693ZM15.9951 3.64318L15.8063 3.80701L15.8063 3.80705L15.9951 3.64318ZM13.9504 1.28624L14.1392 1.12241L14.1392 1.1224L13.9504 1.28624ZM12.7388 1.28624L12.5499 1.1224L12.5499 1.12241L12.7388 1.28624ZM10.6939 3.64318L10.5051 3.47935L10.5051 3.47936L10.6939 3.64318ZM10.7078 4.52693L10.8909 4.35667L10.8908 4.35663L10.7078 4.52693ZM11.5017 4.51153L11.6905 4.6754L11.6906 4.67536L11.5017 4.51153ZM15.1874 17.4887L14.9986 17.3249L14.9986 17.3249L15.1874 17.4887ZM13.3446 19.6129L13.1557 19.7767L13.3446 19.9944L13.5334 19.7767L13.3446 19.6129ZM15.9813 17.4732L16.1644 17.303L15.9813 17.4732ZM15.9951 18.357L15.8063 18.1931L15.8063 18.1932L15.9951 18.357ZM13.9504 20.714L14.1392 20.8778L14.1392 20.8778L13.9504 20.714ZM12.7388 20.714L12.5499 20.8778L12.5499 20.8778L12.7388 20.714ZM10.6939 18.357L10.8827 18.1932L10.8827 18.1932L10.6939 18.357ZM10.7078 17.4732L10.5248 17.303L10.7078 17.4732ZM11.5017 17.4887L11.6906 17.3249L11.6906 17.3249L11.5017 17.4887ZM15.3763 4.3477L13.5334 2.22352L13.1557 2.55118L14.9986 4.67536L15.3763 4.3477ZM15.7983 4.35667C15.6772 4.48682 15.495 4.48455 15.3762 4.34766L14.9986 4.6754C15.3108 5.03509 15.8394 5.04661 16.1644 4.69719L15.7983 4.35667ZM15.8063 3.80705C15.9386 3.95941 15.9339 4.21094 15.7983 4.35663L16.1643 4.69723C16.475 4.36335 16.4827 3.82353 16.1839 3.47931L15.8063 3.80705ZM13.7616 1.45006L15.8063 3.80701L16.184 3.47935L14.1392 1.12241L13.7616 1.45006ZM12.9276 1.45008C13.1591 1.18331 13.5301 1.18331 13.7616 1.45008L14.1392 1.1224C13.7084 0.625868 12.9808 0.625868 12.5499 1.1224L12.9276 1.45008ZM10.8827 3.80701L12.9276 1.45007L12.5499 1.12241L10.5051 3.47935L10.8827 3.80701ZM10.8908 4.35663C10.7553 4.21093 10.7506 3.95937 10.8828 3.807L10.5051 3.47936C10.2065 3.82357 10.2141 4.36335 10.5248 4.69723L10.8908 4.35663ZM11.3129 4.34766C11.1941 4.48455 11.0119 4.48682 10.8909 4.35667L10.5248 4.69719C10.8497 5.04661 11.3784 5.03509 11.6905 4.6754L11.3129 4.34766ZM13.1557 2.22352L11.3129 4.3477L11.6906 4.67536L13.5334 2.55118L13.1557 2.22352ZM2.67603 1.99999C1.27307 1.99999 0.180176 3.25709 0.180176 4.74999H0.680176C0.680176 3.48147 1.59828 2.49999 2.67603 2.49999V1.99999ZM7.72921 1.99999H2.67603V2.49999H7.72921V1.99999ZM8.54068 2.87499C8.54068 2.41761 8.2019 1.99999 7.72921 1.99999V2.49999C7.8767 2.49999 8.04068 2.64199 8.04068 2.87499H8.54068ZM7.72921 3.74999C8.2019 3.74999 8.54068 3.33235 8.54068 2.87499H8.04068C8.04068 3.10798 7.87669 3.24999 7.72921 3.24999V3.74999ZM2.67603 3.74999H7.72921V3.24999H2.67603V3.74999ZM1.8031 4.74999C1.8031 4.17182 2.21847 3.74999 2.67603 3.74999V3.24999C1.89326 3.24999 1.3031 3.94744 1.3031 4.74999H1.8031ZM1.8031 17.25V4.74999H1.3031V17.25H1.8031ZM2.67603 18.25C2.21846 18.25 1.8031 17.8282 1.8031 17.25H1.3031C1.3031 18.0526 1.89326 18.75 2.67603 18.75V18.25ZM7.72921 18.25H2.67603V18.75H7.72921V18.25ZM8.54068 19.125C8.54068 18.6676 8.20188 18.25 7.72921 18.25V18.75C7.87671 18.75 8.04068 18.892 8.04068 19.125H8.54068ZM7.72921 20C8.20192 20 8.54068 19.5823 8.54068 19.125H8.04068C8.04068 19.358 7.87668 19.5 7.72921 19.5V20ZM2.67603 20H7.72921V19.5H2.67603V20ZM0.180176 17.25C0.180176 18.743 1.27308 20 2.67603 20V19.5C1.59828 19.5 0.680176 18.5186 0.680176 17.25H0.180176ZM0.180176 4.74999V17.25H0.680176V4.74999H0.180176ZM14.1582 5.375C14.1582 4.91764 13.8195 4.5 13.3468 4.5V5C13.4943 5 13.6582 5.14198 13.6582 5.375H14.1582ZM14.1582 7.25V5.375H13.6582V7.25H14.1582ZM13.3468 8.125C13.8195 8.125 14.1582 7.70735 14.1582 7.25H13.6582C13.6582 7.48301 13.4943 7.625 13.3468 7.625V8.125ZM12.5353 7.25C12.5353 7.70738 12.8741 8.125 13.3468 8.125V7.625C13.1993 7.625 13.0353 7.48298 13.0353 7.25H12.5353ZM12.5353 5.375V7.25H13.0353V5.375H12.5353ZM13.3468 4.5C12.8741 4.5 12.5353 4.91761 12.5353 5.375H13.0353C13.0353 5.14202 13.1993 5 13.3468 5V4.5ZM14.1582 14.75C14.1582 14.2926 13.8195 13.875 13.3468 13.875V14.375C13.4943 14.375 13.6582 14.5169 13.6582 14.75H14.1582ZM14.1582 16.625V14.75H13.6582V16.625H14.1582ZM13.3468 17.5C13.8195 17.5 14.1582 17.0823 14.1582 16.625H13.6582C13.6582 16.858 13.4943 17 13.3468 17V17.5ZM12.5353 16.625C12.5353 17.0823 12.8741 17.5 13.3468 17.5V17C13.1993 17 13.0353 16.8579 13.0353 16.625H12.5353ZM12.5353 14.75V16.625H13.0353V14.75H12.5353ZM13.3468 13.875C12.8741 13.875 12.5353 14.2925 12.5353 14.75H13.0353C13.0353 14.517 13.1993 14.375 13.3468 14.375V13.875ZM14.1582 10.375C14.1582 9.91764 13.8195 9.5 13.3468 9.5V10C13.4943 10 13.6582 10.142 13.6582 10.375H14.1582ZM14.1582 11.625V10.375H13.6582V11.625H14.1582ZM13.3468 12.5C13.8195 12.5 14.1582 12.0823 14.1582 11.625H13.6582C13.6582 11.858 13.4943 12 13.3468 12V12.5ZM12.5353 11.625C12.5353 12.0823 12.8741 12.5 13.3468 12.5V12C13.1993 12 13.0353 11.858 13.0353 11.625H12.5353ZM12.5353 10.375V11.625H13.0353V10.375H12.5353ZM13.3468 9.5C12.8741 9.5 12.5353 9.91761 12.5353 10.375H13.0353C13.0353 10.142 13.1993 10 13.3468 10V9.5ZM14.9986 17.3249L13.1557 19.449L13.5334 19.7767L15.3763 17.6526L14.9986 17.3249ZM16.1644 17.303C15.8394 16.9536 15.3108 16.9651 14.9986 17.3249L15.3762 17.6526C15.495 17.5157 15.6772 17.5134 15.7983 17.6435L16.1644 17.303ZM16.1839 18.5209C16.4827 18.1767 16.475 17.6369 16.1644 17.303L15.7983 17.6435C15.9339 17.7893 15.9385 18.0408 15.8063 18.1931L16.1839 18.5209ZM14.1392 20.8778L16.184 18.5208L15.8063 18.1932L13.7616 20.5502L14.1392 20.8778ZM12.5499 20.8778C12.9808 21.3743 13.7084 21.3743 14.1392 20.8778L13.7616 20.5502C13.5301 20.8169 13.1591 20.8169 12.9276 20.5502L12.5499 20.8778ZM10.5051 18.5208L12.5499 20.8778L12.9276 20.5502L10.8827 18.1932L10.5051 18.5208ZM10.5248 17.303C10.2142 17.6369 10.2064 18.1766 10.5051 18.5208L10.8827 18.1932C10.7506 18.0409 10.7552 17.7893 10.8909 17.6435L10.5248 17.303ZM11.6906 17.3249C11.3784 16.9651 10.8497 16.9536 10.5248 17.303L10.8909 17.6435C11.0119 17.5134 11.1941 17.5157 11.3129 17.6526L11.6906 17.3249ZM13.5334 19.449L11.6906 17.3249L11.3129 17.6526L13.1557 19.7767L13.5334 19.449Z" fill="#EC6461"/>
</svg>
