<svg width="25" height="24" viewBox="0 0 25 24" fill="none" xmlns="http://www.w3.org/2000/svg">
<path d="M22.8848 16.7402V4.67019C22.8848 3.47019 21.9048 2.58019 20.7148 2.68019H20.6548C18.5548 2.86019 15.3648 3.93019 13.5848 5.05019L13.4148 5.16019C13.1248 5.34019 12.6448 5.34019 12.3548 5.16019L12.1048 5.01019C10.3248 3.90019 7.14477 2.84019 5.04477 2.67019C3.85477 2.57019 2.88477 3.47019 2.88477 4.66019V16.7402C2.88477 17.7002 3.66477 18.6002 4.62477 18.7202L4.91477 18.7602C7.08477 19.0502 10.4348 20.1502 12.3548 21.2002L12.3948 21.2202C12.6648 21.3702 13.0948 21.3702 13.3548 21.2202C15.2748 20.1602 18.6348 19.0502 20.8148 18.7602L21.1448 18.7202C22.1048 18.6002 22.8848 17.7002 22.8848 16.7402Z" stroke="#CACACA" stroke-width="1.5" stroke-linecap="round" stroke-linejoin="round"/>
<path d="M12.8848 5.49023V20.4902" stroke="#CACACA" stroke-width="1.5" stroke-linecap="round" stroke-linejoin="round"/>
<path d="M8.63477 8.49023H6.38477" stroke="#CACACA" stroke-width="1.5" stroke-linecap="round" stroke-linejoin="round"/>
<path d="M9.38477 11.4902H6.38477" stroke="#CACACA" stroke-width="1.5" stroke-linecap="round" stroke-linejoin="round"/>
</svg>
