<svg width="22" height="24" viewBox="0 0 22 24" fill="none" xmlns="http://www.w3.org/2000/svg">
<path fill-rule="evenodd" clip-rule="evenodd" d="M10.2393 0.229798L0.421156 7.86616C0.155425 8.07284 0 8.39063 0 8.72727V20.7273C0 22.5347 1.46525 24 3.27273 24H7.63636H14.1818H18.5455C20.3529 24 21.8182 22.5347 21.8182 20.7273V8.72727C21.8182 8.39063 21.6628 8.07284 21.397 7.86616L11.5788 0.229798C11.1849 -0.0765992 10.6333 -0.0765992 10.2393 0.229798ZM15.2727 21.8182H18.5455C19.1479 21.8182 19.6364 21.3298 19.6364 20.7273V9.26073L10.9091 2.472L2.18182 9.25964V20.7273C2.18182 21.2867 2.60295 21.7478 3.1455 21.8108L3.27273 21.8182H6.54545V12C6.54545 11.4405 6.96659 10.9794 7.50914 10.9164L7.63636 10.9091H14.1818C14.7413 10.9091 15.2024 11.3302 15.2654 11.8728L15.2727 12V21.8182ZM8.72727 21.8182V13.0909H13.0909V21.8182H8.72727Z" fill="#D3D3D3"/>
</svg>
