<svg width="30" height="22" viewBox="0 0 30 22" fill="none" xmlns="http://www.w3.org/2000/svg">
<circle cx="15.3513" cy="10.9997" r="2.70721" stroke="#D3D3D3" stroke-width="2" stroke-linecap="round" stroke-linejoin="round"/>
<path d="M21.7974 4.55349C21.4067 4.16318 20.7735 4.16353 20.3832 4.55428C19.9929 4.94502 19.9933 5.57818 20.384 5.96849L21.7974 4.55349ZM20.384 16.0456C19.9933 16.4359 19.9929 17.0691 20.3832 17.4598C20.7735 17.8506 21.4067 17.8509 21.7974 17.4606L20.384 16.0456ZM8.9054 17.4467C9.29614 17.837 9.9293 17.8367 10.3196 17.4459C10.7099 17.0552 10.7096 16.422 10.3188 16.0317L8.9054 17.4467ZM10.3188 5.95461C10.7096 5.5643 10.7099 4.93114 10.3196 4.5404C9.9293 4.14965 9.29614 4.1493 8.9054 4.53961L10.3188 5.95461ZM25.6288 0.723176C25.2383 0.332592 24.6051 0.332497 24.2145 0.722962C23.824 1.11343 23.8239 1.74659 24.2143 2.13718L25.6288 0.723176ZM24.2143 19.8632C23.8239 20.2538 23.824 20.8869 24.2145 21.2774C24.6051 21.6679 25.2383 21.6678 25.6288 21.2772L24.2143 19.8632ZM5.07432 21.2772C5.46479 21.6678 6.09795 21.6679 6.48854 21.2774C6.87912 20.8869 6.87922 20.2538 6.48875 19.8632L5.07432 21.2772ZM6.48875 2.13718C6.87922 1.74659 6.87912 1.11343 6.48854 0.722962C6.09795 0.332497 5.46479 0.332592 5.07432 0.723176L6.48875 2.13718ZM20.384 5.96849C21.7213 7.30428 22.4727 9.1169 22.4727 11.007H24.4727C24.4727 8.58608 23.5103 6.26442 21.7974 4.55349L20.384 5.96849ZM22.4727 11.007C22.4727 12.8972 21.7213 14.7098 20.384 16.0456L21.7974 17.4606C23.5103 15.7497 24.4727 13.428 24.4727 11.007H22.4727ZM10.3188 16.0317C8.98154 14.6959 8.23014 12.8833 8.23014 10.9932H6.23014C6.23014 13.4141 7.19256 15.7358 8.9054 17.4467L10.3188 16.0317ZM8.23014 10.9932C8.23014 9.10302 8.98154 7.2904 10.3188 5.95461L8.9054 4.53961C7.19256 6.25054 6.23014 8.5722 6.23014 10.9932H8.23014ZM24.2143 2.13718C29.1082 7.03251 29.1082 14.9678 24.2143 19.8632L25.6288 21.2772C31.3034 15.6008 31.3034 6.39951 25.6288 0.723176L24.2143 2.13718ZM6.48875 19.8632C1.5949 14.9678 1.5949 7.03251 6.48875 2.13718L5.07432 0.723176C-0.600295 6.39951 -0.600295 15.6008 5.07432 21.2772L6.48875 19.8632Z" fill="#D3D3D3"/>
</svg>
