<svg width="107" height="117" viewBox="0 0 107 117" fill="none" xmlns="http://www.w3.org/2000/svg">
<path d="M53.5 7.96875C52.2839 7.96875 51.0798 8.246 49.9562 8.78467C48.8327 9.32333 47.8118 10.1129 46.9519 11.1082C46.092 12.1035 45.4099 13.2852 44.9445 14.5856C44.4792 15.8861 44.2396 17.2799 44.2396 18.6875C44.2396 20.0951 44.4792 21.4889 44.9445 22.7894C45.4099 24.0898 46.092 25.2715 46.9519 26.2668C47.8118 27.2621 48.8327 28.0517 49.9562 28.5903C51.0798 29.129 52.2839 29.4062 53.5 29.4062C55.9561 29.4062 58.3115 28.277 60.0481 26.2668C61.7848 24.2566 62.7605 21.5303 62.7605 18.6875C62.7605 15.8447 61.7848 13.1184 60.0481 11.1082C58.3115 9.09804 55.9561 7.96875 53.5 7.96875ZM37.625 18.6875C37.625 13.8141 39.2976 9.14039 42.2747 5.69441C45.2519 2.24843 49.2897 0.3125 53.5 0.3125C57.7104 0.3125 61.7482 2.24843 64.7254 5.69441C67.7025 9.14039 69.375 13.8141 69.375 18.6875C69.375 23.5609 67.7025 28.2346 64.7254 31.6806C61.7482 35.1266 57.7104 37.0625 53.5 37.0625C49.2897 37.0625 45.2519 35.1266 42.2747 31.6806C39.2976 28.2346 37.625 23.5609 37.625 18.6875ZM87.8959 14.0937C86.1416 14.0937 84.4591 14.9004 83.2187 16.3362C81.9782 17.772 81.2813 19.7194 81.2813 21.75C81.2813 23.7806 81.9782 25.728 83.2187 27.1638C84.4591 28.5996 86.1416 29.4062 87.8959 29.4062C89.6502 29.4062 91.3326 28.5996 92.5731 27.1638C93.8136 25.728 94.5105 23.7806 94.5105 21.75C94.5105 19.7194 93.8136 17.772 92.5731 16.3362C91.3326 14.9004 89.6502 14.0937 87.8959 14.0937ZM74.6667 21.75C74.6667 17.6889 76.0605 13.7941 78.5414 10.9224C81.0224 8.05078 84.3873 6.4375 87.8959 6.4375C91.4045 6.4375 94.7694 8.05078 97.2503 10.9224C99.7313 13.7941 101.125 17.6889 101.125 21.75C101.125 25.8111 99.7313 29.7059 97.2503 32.5776C94.7694 35.4492 91.4045 37.0625 87.8959 37.0625C84.3873 37.0625 81.0224 35.4492 78.5414 32.5776C76.0605 29.7059 74.6667 25.8111 74.6667 21.75ZM12.4896 21.75C12.4896 19.7194 13.1865 17.772 14.427 16.3362C15.6675 14.9004 17.3499 14.0937 19.1042 14.0937C20.8585 14.0937 22.541 14.9004 23.7814 16.3362C25.0219 17.772 25.7188 19.7194 25.7188 21.75C25.7188 23.7806 25.0219 25.728 23.7814 27.1638C22.541 28.5996 20.8585 29.4062 19.1042 29.4062C17.3499 29.4062 15.6675 28.5996 14.427 27.1638C13.1865 25.728 12.4896 23.7806 12.4896 21.75ZM19.1042 6.4375C15.5956 6.4375 12.2307 8.05078 9.74977 10.9224C7.26882 13.7941 5.87504 17.6889 5.87504 21.75C5.87504 25.8111 7.26882 29.7059 9.74977 32.5776C12.2307 35.4492 15.5956 37.0625 19.1042 37.0625C22.6128 37.0625 25.9777 35.4492 28.4586 32.5776C30.9396 29.7059 32.3334 25.8111 32.3334 21.75C32.3334 17.6889 30.9396 13.7941 28.4586 10.9224C25.9777 8.05078 22.6128 6.4375 19.1042 6.4375ZM29.6875 56.2031C29.6875 52.7512 30.8723 49.4406 32.9811 46.9997C35.0899 44.5588 37.95 43.1875 40.9323 43.1875H66.0678C69.0501 43.1875 71.9102 44.5588 74.019 46.9997C76.1278 49.4406 77.3125 52.7512 77.3125 56.2031V89.125C77.3125 96.435 74.8037 103.446 70.338 108.615C65.8723 113.784 59.8155 116.687 53.5 116.687C47.1846 116.687 41.1278 113.784 36.6621 108.615C32.1964 103.446 29.6875 96.435 29.6875 89.125V56.2031ZM53.5 109.031C58.0612 109.031 62.4356 106.934 65.6608 103.201C68.886 99.4677 70.698 94.4045 70.698 89.125V56.2031C70.698 54.7817 70.2101 53.4185 69.3418 52.4135C68.4735 51.4084 67.2958 50.8437 66.0678 50.8437H40.9323C39.7043 50.8437 38.5266 51.4084 37.6583 52.4135C36.79 53.4185 36.3021 54.7817 36.3021 56.2031V89.125C36.3021 94.4045 38.114 99.4677 41.3393 103.201C44.5645 106.934 48.9389 109.031 53.5 109.031ZM19.1042 99.8437C21.3168 99.8477 23.4862 99.1349 25.3669 97.7857C25.9463 100.315 26.7745 102.726 27.8169 104.983C24.9947 106.724 21.831 107.59 18.6338 107.496C15.4367 107.402 12.315 106.351 9.57282 104.446C6.83064 102.541 4.5614 99.8465 2.98605 96.6249C1.41071 93.4033 0.582948 89.7643 0.583374 86.0625V56.2062C0.583027 54.4967 0.873626 52.8039 1.43857 51.2244C2.00352 49.6449 2.83175 48.2097 3.87596 47.0008C4.92017 45.7918 6.15991 44.8328 7.52436 44.1785C8.88881 43.5243 10.3513 43.1875 11.8282 43.1875H26.3803C27.1423 43.1875 27.8884 43.2763 28.6054 43.4417C26.9576 45.5704 25.7434 48.0999 25.052 50.8437H11.8282C10.6002 50.8437 9.42245 51.4084 8.55411 52.4135C7.68578 53.4185 7.19796 54.7817 7.19796 56.2031V86.0625C7.19796 89.7175 8.45236 93.2228 10.6852 95.8073C12.9181 98.3918 15.9465 99.8437 19.1042 99.8437ZM87.8959 107.5C84.857 107.506 81.864 106.642 79.1832 104.986C80.2256 102.726 81.0538 100.315 81.6332 97.7857C83.4369 99.0769 85.5057 99.7871 87.626 99.8427C89.7462 99.8984 91.8407 99.2975 93.6931 98.1023C95.5455 96.9071 97.0884 95.1609 98.1624 93.0442C99.2364 90.9275 99.8025 88.5172 99.8021 86.0625V56.2031C99.8021 54.7817 99.3143 53.4185 98.446 52.4135C97.5776 51.4084 96.3999 50.8437 95.1719 50.8437H81.948C81.2559 48.0996 80.0408 45.5701 78.392 43.4417C79.1144 43.2763 79.8578 43.1875 80.6198 43.1875H95.1719C98.1542 43.1875 101.014 44.5588 103.123 46.9997C105.232 49.4406 106.417 52.7512 106.417 56.2031V86.0625C106.417 91.7481 104.465 97.2008 100.992 101.221C97.5188 105.241 92.8079 107.5 87.8959 107.5Z" fill="#FF3737"/>
</svg>
