<svg width="21" height="22" viewBox="0 0 21 22" fill="none" xmlns="http://www.w3.org/2000/svg">
<path fill-rule="evenodd" clip-rule="evenodd" d="M10.7848 0C7.7472 0 5.28477 2.46243 5.28477 5.5C5.28477 8.53757 7.7472 11 10.7848 11C13.8223 11 16.2848 8.53757 16.2848 5.5C16.2848 2.46243 13.8223 0 10.7848 0ZM10.7848 2.2C12.6073 2.2 14.0848 3.67746 14.0848 5.5C14.0848 7.32254 12.6073 8.8 10.7848 8.8C8.96223 8.8 7.48477 7.32254 7.48477 5.5C7.48477 3.67746 8.96223 2.2 10.7848 2.2ZM20.6797 18.4614C20.5548 15.5345 18.1424 13.2 15.1848 13.2H6.38477L6.14619 13.2051C3.2193 13.33 0.884766 15.7424 0.884766 18.7V20.9L0.892166 21.0283C0.955708 21.5754 1.42065 22 1.98477 22C2.59228 22 3.08477 21.5075 3.08477 20.9V18.7L3.09037 18.5061C3.19074 16.7738 4.62732 15.4 6.38477 15.4H15.1848L15.3787 15.4056C17.111 15.506 18.4848 16.9426 18.4848 18.7V20.9L18.4922 21.0283C18.5557 21.5754 19.0206 22 19.5848 22C20.1923 22 20.6848 21.5075 20.6848 20.9V18.7L20.6797 18.4614Z" fill="#D0D5D4"/>
</svg>
