<svg width="18" height="20" viewBox="0 0 18 20" fill="none" xmlns="http://www.w3.org/2000/svg">
<path fill-rule="evenodd" clip-rule="evenodd" d="M15.9433 1.06396H2.06736C1.335 1.06482 0.741513 1.70652 0.740723 2.49837V17.5015C0.741513 18.2933 1.335 18.935 2.06736 18.9359H15.9433C16.6756 18.935 17.2691 18.2933 17.2699 17.5015V2.49837C17.2691 1.70652 16.6756 1.06482 15.9433 1.06396ZM12.7316 1.68359V3.98628C12.7312 4.42597 12.4016 4.78228 11.995 4.78277H6.01578C5.60913 4.78228 5.27958 4.42597 5.27913 3.98628V1.68359H12.7316ZM15.943 18.3158C16.3588 18.3153 16.6959 17.9509 16.6963 17.5013V2.49816C16.6959 2.04849 16.3588 1.68408 15.943 1.68359H13.3045V3.98628C13.3037 4.76813 12.7177 5.40172 11.9946 5.4026H6.0154C5.29228 5.40175 4.70628 4.76814 4.70549 3.98628V1.68359H2.06703C1.65114 1.68408 1.31411 2.04849 1.31366 2.49816V17.5013C1.31411 17.9509 1.65114 18.3153 2.06703 18.3158H15.943Z" fill="#EC6461"/>
<path d="M2.06736 1.06396V0.763965L2.06701 0.763965L2.06736 1.06396ZM15.9433 1.06396L15.9436 0.763965H15.9433V1.06396ZM0.740723 2.49837L0.440723 2.49807V2.49837H0.740723ZM0.740723 17.5015H0.440722L0.440723 17.5018L0.740723 17.5015ZM2.06736 18.9359L2.06701 19.2359H2.06736V18.9359ZM15.9433 18.9359V19.2359L15.9436 19.2359L15.9433 18.9359ZM17.2699 17.5015L17.5699 17.5018V17.5015H17.2699ZM17.2699 2.49837H17.5699V2.49807L17.2699 2.49837ZM12.7316 3.98628L13.0316 3.98659V3.98628H12.7316ZM12.7316 1.68359H13.0316V1.38359H12.7316V1.68359ZM11.995 4.78277V5.08277L11.9953 5.08277L11.995 4.78277ZM6.01578 4.78277L6.01542 5.08277H6.01578V4.78277ZM5.27913 3.98628H4.97913L4.97913 3.98659L5.27913 3.98628ZM5.27913 1.68359V1.38359H4.97913V1.68359H5.27913ZM16.6963 17.5013L16.9963 17.5016V17.5013H16.6963ZM15.943 18.3158V18.6158L15.9433 18.6158L15.943 18.3158ZM16.6963 2.49816H16.9963V2.49786L16.6963 2.49816ZM15.943 1.68359L15.9433 1.38359H15.943V1.68359ZM13.3045 1.68359V1.38359H13.0045V1.68359H13.3045ZM13.3045 3.98628L13.6045 3.98659V3.98628H13.3045ZM11.9946 5.4026V5.7026L11.9949 5.7026L11.9946 5.4026ZM6.0154 5.4026L6.01505 5.7026H6.0154V5.4026ZM4.70549 3.98628H4.40549L4.40549 3.98658L4.70549 3.98628ZM4.70549 1.68359H5.00549V1.38359H4.70549V1.68359ZM2.06703 1.68359V1.38359L2.06668 1.38359L2.06703 1.68359ZM1.31366 2.49816L1.01366 2.49786V2.49816H1.31366ZM1.31366 17.5013H1.01366L1.01366 17.5016L1.31366 17.5013ZM2.06703 18.3158L2.06668 18.6158H2.06703V18.3158ZM2.06736 1.36396H15.9433V0.763965H2.06736V1.36396ZM1.04072 2.49866C1.04137 1.84983 1.52235 1.3646 2.06771 1.36396L2.06701 0.763965C1.14766 0.765037 0.441655 1.56321 0.440723 2.49807L1.04072 2.49866ZM1.04072 17.5015V2.49837H0.440723V17.5015H1.04072ZM2.06771 18.6359C1.52235 18.6352 1.04137 18.15 1.04072 17.5012L0.440723 17.5018C0.441655 18.4366 1.14766 19.2348 2.06701 19.2359L2.06771 18.6359ZM15.9433 18.6359H2.06736V19.2359H15.9433V18.6359ZM16.9699 17.5012C16.9693 18.15 16.4883 18.6352 15.9429 18.6359L15.9436 19.2359C16.863 19.2348 17.569 18.4366 17.5699 17.5018L16.9699 17.5012ZM16.9699 2.49837V17.5015H17.5699V2.49837H16.9699ZM15.9429 1.36396C16.4883 1.3646 16.9693 1.84983 16.9699 2.49866L17.5699 2.49807C17.569 1.56321 16.863 0.765037 15.9436 0.763965L15.9429 1.36396ZM13.0316 3.98628V1.68359H12.4316V3.98628H13.0316ZM11.9953 5.08277C12.589 5.08206 13.031 4.56928 13.0316 3.98659L12.4316 3.98597C12.4313 4.28265 12.2143 4.48251 11.9946 4.48277L11.9953 5.08277ZM6.01578 5.08277H11.995V4.48277H6.01578V5.08277ZM4.97913 3.98659C4.97972 4.56928 5.42178 5.08206 6.01542 5.08277L6.01614 4.48277C5.79647 4.48251 5.57943 4.28265 5.57913 3.98597L4.97913 3.98659ZM4.97913 1.68359V3.98628H5.57913V1.68359H4.97913ZM12.7316 1.38359H5.27913V1.98359H12.7316V1.38359ZM16.3963 17.501C16.396 17.8076 16.1715 18.0156 15.9426 18.0158L15.9433 18.6158C16.5462 18.6151 16.9957 18.0942 16.9963 17.5016L16.3963 17.501ZM16.3963 2.49816V17.5013H16.9963V2.49816H16.3963ZM15.9426 1.98359C16.1715 1.98386 16.396 2.1918 16.3963 2.49846L16.9963 2.49786C16.9957 1.90518 16.5462 1.3843 15.9433 1.38359L15.9426 1.98359ZM13.3045 1.98359H15.943V1.38359H13.3045V1.98359ZM13.6045 3.98628V1.68359H13.0045V3.98628H13.6045ZM11.9949 5.7026C12.905 5.70149 13.6035 4.91144 13.6045 3.98659L13.0045 3.98597C13.0038 4.62481 12.5303 5.10195 11.9942 5.1026L11.9949 5.7026ZM6.0154 5.7026H11.9946V5.1026H6.0154V5.7026ZM4.40549 3.98658C4.40642 4.91145 5.10494 5.70153 6.01505 5.7026L6.01576 5.1026C5.47963 5.10197 5.00613 4.62483 5.00549 3.98598L4.40549 3.98658ZM4.40549 1.68359V3.98628H5.00549V1.68359H4.40549ZM2.06703 1.98359H4.70549V1.38359H2.06703V1.98359ZM1.61366 2.49846C1.61396 2.1918 1.83848 1.98386 2.06738 1.98359L2.06668 1.38359C1.4638 1.3843 1.01425 1.90518 1.01366 2.49786L1.61366 2.49846ZM1.61366 17.5013V2.49816H1.01366V17.5013H1.61366ZM2.06738 18.0158C1.83848 18.0156 1.61396 17.8076 1.61366 17.501L1.01366 17.5016C1.01425 18.0942 1.4638 18.6151 2.06668 18.6158L2.06738 18.0158ZM15.943 18.0158H2.06703V18.6158H15.943V18.0158Z" fill="#EC6461"/>
<path fill-rule="evenodd" clip-rule="evenodd" d="M7.39986 10.6464C7.68549 11.433 7.60428 12.5569 7.43359 13.3678C7.70694 13.6 7.91769 13.9073 8.04388 14.2575C8.43919 15.3464 8.1035 17.0068 7.09359 17.4355C6.9249 17.5065 6.74535 17.5425 6.56432 17.5416C6.21501 17.5416 5.84315 17.4153 5.47827 17.1674C4.99099 16.8363 4.58694 16.3271 4.39747 15.8054C4.25996 15.426 4.22636 15.0118 4.30068 14.6122C3.53986 14.0361 2.91648 13.2813 2.68627 12.6473C2.35303 11.7363 2.49545 10.7022 3.05971 9.93565C3.62397 9.16912 4.52406 8.78704 5.41992 8.93376C6.31579 9.08048 7.07085 9.73362 7.39986 10.6464ZM5.78327 16.6422C6.17662 16.9094 6.57791 16.9881 6.88408 16.8581C7.56622 16.5685 7.80241 15.2891 7.5099 14.4836C7.40219 14.1847 7.20795 13.9315 6.95617 13.7617C6.84956 13.6895 6.79892 13.5506 6.8313 13.4192C7.06318 12.4777 7.07713 11.4544 6.86598 10.8727C6.61568 10.1602 6.03052 9.64799 5.3338 9.53168C4.63708 9.41537 3.93631 9.71286 3.49889 10.3106C3.06147 10.9084 2.9549 11.7142 3.21986 12.4206C3.42322 12.9806 4.05219 13.7029 4.78502 14.2178C4.89361 14.2941 4.9414 14.4396 4.90163 14.5728C4.80399 14.9017 4.81439 15.257 4.93106 15.5785C5.07519 15.9754 5.40171 16.3829 5.78327 16.6422Z" fill="#EC6461"/>
<path d="M7.43359 13.3678L7.33573 13.3472L7.32347 13.4055L7.36884 13.444L7.43359 13.3678ZM7.39986 10.6464L7.30578 10.6803L7.30587 10.6806L7.39986 10.6464ZM8.04388 14.2575L7.9498 14.2914L7.94988 14.2916L8.04388 14.2575ZM7.09359 17.4355L7.13239 17.5277L7.13267 17.5275L7.09359 17.4355ZM6.56432 17.5416L6.56481 17.4416H6.56432V17.5416ZM5.47827 17.1674L5.53447 17.0846L5.53447 17.0846L5.47827 17.1674ZM4.39747 15.8054L4.30345 15.8395L4.30348 15.8396L4.39747 15.8054ZM4.30068 14.6122L4.399 14.6305L4.41029 14.5698L4.36105 14.5325L4.30068 14.6122ZM2.68627 12.6473L2.78026 12.6132L2.78018 12.613L2.68627 12.6473ZM3.05971 9.93565L3.14024 9.99493L3.05971 9.93565ZM6.88408 16.8581L6.92317 16.9502H6.92317L6.88408 16.8581ZM5.78327 16.6422L5.72707 16.7249L5.72707 16.7249L5.78327 16.6422ZM7.5099 14.4836L7.41582 14.5175L7.41591 14.5178L7.5099 14.4836ZM6.95617 13.7617L6.90012 13.8445L6.90027 13.8446L6.95617 13.7617ZM6.8313 13.4192L6.92839 13.4432L6.92839 13.4431L6.8313 13.4192ZM6.86598 10.8727L6.77162 10.9059L6.77198 10.9069L6.86598 10.8727ZM5.3338 9.53168L5.35027 9.43305L5.3338 9.53168ZM3.49889 10.3106L3.57959 10.3697L3.49889 10.3106ZM3.21986 12.4206L3.31386 12.3864L3.31349 12.3855L3.21986 12.4206ZM4.78502 14.2178L4.72753 14.2996L4.72753 14.2996L4.78502 14.2178ZM4.90163 14.5728L4.80581 14.5442L4.80577 14.5444L4.90163 14.5728ZM4.93106 15.5785L4.83706 15.6126L4.83707 15.6127L4.93106 15.5785ZM7.53144 13.3884C7.70327 12.5721 7.78919 11.4256 7.49385 10.6123L7.30587 10.6806C7.58179 11.4404 7.50529 12.5417 7.33573 13.3472L7.53144 13.3884ZM8.13796 14.2236C8.00608 13.8576 7.7855 13.5356 7.49833 13.2916L7.36884 13.444C7.62837 13.6645 7.82929 13.9569 7.9498 14.2914L8.13796 14.2236ZM7.13267 17.5275C7.67736 17.2963 8.02748 16.74 8.19234 16.1197C8.35767 15.4977 8.34333 14.7893 8.13788 14.2234L7.94988 14.2916C8.13974 14.8146 8.15521 15.4808 7.99905 16.0684C7.84241 16.6577 7.51973 17.1459 7.05452 17.3434L7.13267 17.5275ZM6.56384 17.6416C6.7585 17.6426 6.95141 17.6038 7.13239 17.5277L7.05479 17.3433C6.89839 17.4092 6.73219 17.4425 6.56481 17.4416L6.56384 17.6416ZM5.42207 17.2501C5.7996 17.5066 6.1907 17.6416 6.56432 17.6416V17.4416C6.23933 17.4416 5.88671 17.324 5.53447 17.0846L5.42207 17.2501ZM4.30348 15.8396C4.50057 16.3823 4.91853 16.908 5.42207 17.2501L5.53447 17.0846C5.06345 16.7646 4.6733 16.272 4.49146 15.7713L4.30348 15.8396ZM4.20237 14.594C4.12481 15.0109 4.15982 15.4432 4.30345 15.8395L4.49149 15.7714C4.36009 15.4088 4.32791 15.0127 4.399 14.6305L4.20237 14.594ZM2.59227 12.6814C2.83136 13.3399 3.47052 14.109 4.24031 14.692L4.36105 14.5325C3.6092 13.9632 3.00161 13.2228 2.78026 12.6132L2.59227 12.6814ZM2.97918 9.87637C2.39459 10.6705 2.24787 11.7399 2.59236 12.6817L2.78018 12.613C2.4582 11.7327 2.59631 10.7338 3.14024 9.99493L2.97918 9.87637ZM5.43609 8.83507C4.50094 8.68192 3.56435 9.08143 2.97918 9.87637L3.14024 9.99493C3.68359 9.25681 4.54718 8.89216 5.40376 9.03244L5.43609 8.83507ZM7.49394 10.6125C7.15367 9.66848 6.37068 8.98813 5.43609 8.83507L5.40376 9.03244C6.26089 9.17282 6.98803 9.79876 7.30578 10.6803L7.49394 10.6125ZM6.845 16.7661C6.58234 16.8776 6.21783 16.8165 5.83947 16.5595L5.72707 16.7249C6.13542 17.0023 6.57348 17.0987 6.92317 16.9502L6.845 16.7661ZM7.41591 14.5178C7.55445 14.8993 7.56921 15.4003 7.46516 15.8413C7.3601 16.2867 7.14219 16.6399 6.845 16.7661L6.92317 16.9502C7.30811 16.7867 7.54937 16.3554 7.65981 15.8873C7.77126 15.4148 7.75786 14.8735 7.60389 14.4495L7.41591 14.5178ZM6.90027 13.8446C7.13358 14.0019 7.31495 14.2376 7.41582 14.5175L7.60398 14.4497C7.48943 14.1318 7.28231 13.861 7.01208 13.6788L6.90027 13.8446ZM6.7342 13.3953C6.69249 13.5646 6.75651 13.7473 6.90012 13.8445L7.01223 13.6789C6.94261 13.6318 6.90535 13.5367 6.92839 13.4432L6.7342 13.3953ZM6.77198 10.9069C6.97354 11.4621 6.96383 12.463 6.7342 13.3953L6.92839 13.4431C7.16254 12.4925 7.18072 11.4466 6.95997 10.8386L6.77198 10.9069ZM5.31734 9.63032C5.97513 9.74013 6.53238 10.2248 6.77163 10.9059L6.96033 10.8396C6.69898 10.0956 6.08592 9.55586 5.35027 9.43305L5.31734 9.63032ZM3.57959 10.3697C3.99606 9.80053 4.66012 9.5206 5.31734 9.63032L5.35027 9.43305C4.61405 9.31014 3.87655 9.62519 3.41819 10.2516L3.57959 10.3697ZM3.31349 12.3855C3.06011 11.71 3.16252 10.9396 3.57959 10.3697L3.41819 10.2516C2.96042 10.8772 2.8497 11.7185 3.12623 12.4557L3.31349 12.3855ZM4.84251 14.136C4.11851 13.6273 3.50752 12.9198 3.31385 12.3864L3.12586 12.4547C3.33893 13.0415 3.98588 13.7785 4.72753 14.2996L4.84251 14.136ZM4.99745 14.6015C5.04873 14.4297 4.98853 14.2385 4.8425 14.136L4.72753 14.2996C4.79868 14.3496 4.83408 14.4495 4.80581 14.5442L4.99745 14.6015ZM5.02506 15.5444C4.91571 15.2431 4.90593 14.9097 4.9975 14.6013L4.80577 14.5444C4.70206 14.8937 4.71306 15.2709 4.83706 15.6126L5.02506 15.5444ZM5.83947 16.5595C5.47361 16.3109 5.16133 15.9196 5.02505 15.5444L4.83707 15.6127C4.98904 16.0311 5.32981 16.455 5.72707 16.7249L5.83947 16.5595Z" fill="#EC6461"/>
<path fill-rule="evenodd" clip-rule="evenodd" d="M5.87613 8.73191C5.83549 8.74033 5.79421 8.74457 5.75283 8.74456C5.3234 8.74456 4.92197 8.28759 4.80703 7.63837C4.68115 6.92716 4.95355 6.29327 5.42707 6.19529C5.90059 6.0973 6.37024 6.57767 6.49616 7.28883C6.62209 7.99999 6.3497 8.63377 5.87613 8.73191ZM5.55149 6.80225C5.54603 6.80222 5.54057 6.80276 5.5352 6.80385C5.42317 6.82704 5.30045 7.12544 5.37063 7.52188C5.4408 7.91831 5.65669 8.14657 5.7689 8.12311C5.88112 8.09966 6.00389 7.80158 5.93367 7.40514C5.86655 7.02709 5.6671 6.80225 5.55149 6.80225Z" fill="#EC6461"/>
<path d="M5.75283 8.74456L5.75283 8.64456H5.75283V8.74456ZM5.87613 8.73191L5.89642 8.82983L5.89642 8.82983L5.87613 8.73191ZM4.80703 7.63837L4.70856 7.65579L4.70857 7.6558L4.80703 7.63837ZM5.42707 6.19529L5.44733 6.29321L5.42707 6.19529ZM6.49616 7.28883L6.3977 7.30627L6.49616 7.28883ZM5.5352 6.80385L5.51527 6.70585L5.51493 6.70592L5.5352 6.80385ZM5.55149 6.80225L5.55099 6.90225H5.55149V6.80225ZM5.37063 7.52188L5.27216 7.53931L5.37063 7.52188ZM5.7689 8.12311L5.74845 8.02523L5.7689 8.12311ZM5.93367 7.40514L6.03214 7.3877L6.03213 7.38766L5.93367 7.40514ZM5.75282 8.84456C5.80104 8.84457 5.84912 8.83963 5.89642 8.82983L5.85584 8.63399C5.82186 8.64103 5.78737 8.64457 5.75283 8.64456L5.75282 8.84456ZM4.70857 7.6558C4.76868 7.99536 4.90441 8.28922 5.08625 8.50021C5.26772 8.71077 5.50102 8.84456 5.75283 8.84456V8.64456C5.57521 8.64456 5.39309 8.54988 5.23775 8.36964C5.08278 8.18983 4.96033 7.9306 4.9055 7.62093L4.70857 7.6558ZM5.40681 6.09736C5.12878 6.15489 4.92059 6.36767 4.8004 6.64739C4.68003 6.92752 4.64275 7.28396 4.70856 7.65579L4.9055 7.62094C4.84544 7.28157 4.88141 6.96546 4.98416 6.72635C5.08707 6.48682 5.25184 6.33367 5.44733 6.29321L5.40681 6.09736ZM6.59463 7.27139C6.52881 6.8997 6.37228 6.5823 6.16347 6.36872C5.95445 6.15493 5.68584 6.03962 5.40681 6.09736L5.44733 6.29321C5.64182 6.25297 5.84479 6.32885 6.02046 6.50854C6.19634 6.68844 6.33759 6.96681 6.3977 7.30627L6.59463 7.27139ZM5.89642 8.82983C6.17444 8.77221 6.38264 8.55944 6.50283 8.27973C6.6232 7.99961 6.66047 7.64321 6.59463 7.27139L6.3977 7.30627C6.45779 7.64561 6.42182 7.96167 6.31908 8.20077C6.21617 8.44027 6.05139 8.59347 5.85584 8.63399L5.89642 8.82983ZM5.55513 6.90184C5.5538 6.90211 5.55241 6.90225 5.55099 6.90225L5.55199 6.70225C5.53964 6.70219 5.52735 6.7034 5.51527 6.70585L5.55513 6.90184ZM5.46909 7.50444C5.43639 7.31972 5.44937 7.16136 5.48082 7.0501C5.49662 6.99417 5.5162 6.95329 5.53432 6.92736C5.55432 6.89875 5.56391 6.90002 5.55547 6.90177L5.51493 6.70592C5.45048 6.71927 5.40272 6.76654 5.37039 6.81279C5.33619 6.86172 5.30846 6.92456 5.28836 6.9957C5.24798 7.13854 5.23468 7.32759 5.27216 7.53931L5.46909 7.50444ZM5.74845 8.02523C5.75771 8.02329 5.75096 8.02881 5.72397 8.01114C5.69934 7.99503 5.66783 7.96565 5.63437 7.92045C5.56783 7.83058 5.5018 7.68922 5.46909 7.50444L5.27216 7.53931C5.30962 7.75097 5.38663 7.92195 5.47363 8.03946C5.51693 8.09794 5.56482 8.14601 5.61443 8.17848C5.66167 8.20941 5.72399 8.23466 5.78936 8.221L5.74845 8.02523ZM5.8352 7.42258C5.86792 7.6073 5.85495 7.76557 5.82348 7.87677C5.80766 7.93265 5.78807 7.97352 5.76993 7.99946C5.74992 8.02805 5.74023 8.02695 5.74845 8.02523L5.78936 8.221C5.85368 8.20756 5.90142 8.1604 5.9338 8.11411C5.96804 8.06517 5.9958 8.00235 6.01592 7.93123C6.05634 7.78841 6.06964 7.59942 6.03214 7.3877L5.8352 7.42258ZM5.55149 6.90225C5.5499 6.90225 5.56309 6.90271 5.59056 6.9233C5.61624 6.94255 5.6471 6.9741 5.67894 7.01942C5.74242 7.10975 5.80394 7.24651 5.83521 7.42262L6.03213 7.38766C5.99628 7.18572 5.92451 7.02103 5.84258 6.90443C5.80173 6.84629 5.75685 6.798 5.71052 6.76327C5.66598 6.72989 5.61088 6.70225 5.55149 6.70225V6.90225Z" fill="#EC6461"/>
<path d="M3.98761 8.43803C4.02201 8.54274 4.10562 8.61954 4.20676 8.6393C4.3079 8.65906 4.41108 8.61876 4.47719 8.53367C4.5433 8.44859 4.56222 8.33174 4.52677 8.22744L4.29063 7.52057C4.25584 7.41642 4.17231 7.34026 4.0715 7.32077C3.97068 7.30127 3.86791 7.34141 3.80189 7.42606C3.73587 7.51071 3.71664 7.62701 3.75143 7.73116L3.98761 8.43803Z" fill="#EC6461" stroke="#EC6461" stroke-width="0.2"/>
<path d="M3.2145 8.96495C3.26451 9.06241 3.35908 9.12332 3.46215 9.12448C3.56523 9.12564 3.66094 9.06686 3.71282 8.97055C3.7647 8.87424 3.76475 8.75522 3.71295 8.65886L3.23566 7.75018C3.15747 7.60134 2.98249 7.54921 2.84484 7.63375C2.70718 7.71829 2.65897 7.90749 2.73716 8.05633L3.2145 8.96495Z" fill="#EC6461" stroke="#EC6461" stroke-width="0.2"/>
<path d="M2.61294 9.66336C2.6794 9.7476 2.78238 9.7871 2.88308 9.76699C2.98378 9.74688 3.06692 9.67021 3.10116 9.56586C3.1354 9.4615 3.11556 9.34532 3.0491 9.26108L2.51596 8.58536C2.41322 8.45513 2.2323 8.43962 2.11185 8.5507C1.99141 8.66179 1.97706 8.85741 2.0798 8.98763L2.61294 9.66336Z" fill="#EC6461" stroke="#EC6461" stroke-width="0.2"/>
<path d="M2.54064 10.1418L2.11069 9.59708C2.00795 9.46685 1.82702 9.45134 1.70658 9.56242C1.58614 9.6735 1.57179 9.86913 1.67453 9.99935L2.10448 10.544C2.2075 10.6729 2.38748 10.6878 2.50739 10.5772C2.6273 10.4666 2.64215 10.2721 2.54064 10.1418Z" fill="#EC6461" stroke="#EC6461" stroke-width="0.2"/>
<path fill-rule="evenodd" clip-rule="evenodd" d="M10.6111 10.6461C11.1234 9.24013 12.5915 8.54775 13.8931 9.09825C15.1934 9.6521 15.8338 11.2395 15.3246 12.6467C15.0943 13.2808 14.4709 14.0356 13.7102 14.6117C13.7845 15.0112 13.7509 15.4254 13.6133 15.8049C13.4239 16.3265 13.0198 16.8357 12.5325 17.1667C12.1679 17.4146 11.7958 17.541 11.4465 17.541C11.2656 17.5419 11.0861 17.506 10.9175 17.435C9.9075 17.0063 9.5718 15.3459 9.96717 14.257C10.0933 13.9068 10.3041 13.5996 10.5774 13.3675C10.4067 12.5565 10.3255 11.4326 10.6111 10.6461ZM13.2255 14.2175C13.9583 13.7027 14.5873 12.9804 14.7907 12.4203V12.4201C15.0464 11.7158 14.9352 10.9175 14.499 10.3259C14.0628 9.73434 13.3678 9.43931 12.6758 9.55197C11.9839 9.66464 11.4001 10.1679 11.1443 10.8722C10.9331 11.4538 10.9471 12.4771 11.1791 13.4187C11.2114 13.5501 11.1608 13.689 11.0541 13.7611C10.8023 13.9309 10.6081 14.1842 10.5004 14.4832C10.2079 15.2885 10.4441 16.568 11.1265 16.8577C11.4328 16.9878 11.8339 16.9089 12.2273 16.6417C12.6088 16.3824 12.9354 15.9749 13.0794 15.5781C13.1961 15.2566 13.2065 14.9014 13.1089 14.5726C13.0691 14.4394 13.1169 14.2938 13.2255 14.2175Z" fill="#EC6461"/>
<path d="M13.8931 9.09825L13.9323 9.00624L13.932 9.00615L13.8931 9.09825ZM10.6111 10.6461L10.5172 10.6118L10.5171 10.6119L10.6111 10.6461ZM15.3246 12.6467L15.4186 12.6809L15.4186 12.6808L15.3246 12.6467ZM13.7102 14.6117L13.6498 14.532L13.6006 14.5692L13.6119 14.63L13.7102 14.6117ZM13.6133 15.8049L13.7073 15.839L13.7073 15.8389L13.6133 15.8049ZM12.5325 17.1667L12.4763 17.084L12.4763 17.084L12.5325 17.1667ZM11.4465 17.541V17.441L11.446 17.441L11.4465 17.541ZM10.9175 17.435L10.8784 17.527L10.8787 17.5271L10.9175 17.435ZM9.96717 14.257L10.0612 14.2912L10.0612 14.2909L9.96717 14.257ZM10.5774 13.3675L10.6421 13.4437L10.6875 13.4051L10.6753 13.3469L10.5774 13.3675ZM14.7907 12.4203L14.8847 12.4544L14.8907 12.4379V12.4203H14.7907ZM13.2255 14.2175L13.283 14.2994L13.283 14.2993L13.2255 14.2175ZM14.7907 12.4201L14.6967 12.386L14.6907 12.4025V12.4201H14.7907ZM14.499 10.3259L14.5795 10.2666L14.499 10.3259ZM12.6758 9.55197L12.6598 9.45327L12.6758 9.55197ZM11.1443 10.8722L11.2383 10.9063L11.2383 10.9063L11.1443 10.8722ZM11.1791 13.4187L11.2762 13.3947L11.2762 13.3947L11.1791 13.4187ZM11.0541 13.7611L11.11 13.844L11.1102 13.8439L11.0541 13.7611ZM10.5004 14.4832L10.5944 14.5174L10.5944 14.5171L10.5004 14.4832ZM11.1265 16.8577L11.1656 16.7656L11.1655 16.7656L11.1265 16.8577ZM12.2273 16.6417L12.2835 16.7244L12.2835 16.7244L12.2273 16.6417ZM13.0794 15.5781L13.1734 15.6122L13.1734 15.6122L13.0794 15.5781ZM13.1089 14.5726L13.2047 14.5442L13.2047 14.544L13.1089 14.5726ZM13.932 9.00615C12.5725 8.43113 11.0471 9.15768 10.5172 10.6118L10.7051 10.6803C11.1998 9.32258 12.6106 8.66438 13.8541 9.19035L13.932 9.00615ZM15.4186 12.6808C15.9442 11.2283 15.286 9.58281 13.9323 9.00624L13.8539 9.19025C15.1009 9.72139 15.7234 11.2506 15.2306 12.6127L15.4186 12.6808ZM13.7705 14.6914C14.5403 14.1085 15.1794 13.3394 15.4186 12.6809L15.2306 12.6126C15.0092 13.2223 14.4016 13.9627 13.6498 14.532L13.7705 14.6914ZM13.7073 15.8389C13.851 15.4426 13.8861 15.0103 13.8085 14.5934L13.6119 14.63C13.683 15.0121 13.6508 15.4082 13.5193 15.7708L13.7073 15.8389ZM12.5887 17.2495C13.0923 16.9074 13.5103 16.3817 13.7073 15.839L13.5193 15.7707C13.3376 16.2714 12.9474 16.764 12.4763 17.084L12.5887 17.2495ZM11.4465 17.641C11.8201 17.641 12.2114 17.5059 12.5888 17.2494L12.4763 17.084C12.1243 17.3233 11.7715 17.441 11.4465 17.441V17.641ZM10.8787 17.5271C11.0596 17.6033 11.2524 17.642 11.447 17.641L11.446 17.441C11.2787 17.4419 11.1126 17.4086 10.9563 17.3428L10.8787 17.5271ZM9.87317 14.2229C9.66769 14.7888 9.65333 15.4972 9.81867 16.1192C9.98352 16.7395 10.3337 17.2958 10.8784 17.527L10.9565 17.3429C10.4913 17.1454 10.1686 16.6572 10.012 16.0679C9.8558 15.4803 9.87128 14.8141 10.0612 14.2912L9.87317 14.2229ZM10.5127 13.2912C10.2255 13.5352 10.0049 13.8572 9.87309 14.2231L10.0612 14.2909C10.1817 13.9565 10.3826 13.6641 10.6421 13.4437L10.5127 13.2912ZM10.5171 10.6119C10.2218 11.4253 10.3077 12.5717 10.4796 13.3881L10.6753 13.3469C10.5057 12.5413 10.4292 11.44 10.7051 10.6802L10.5171 10.6119ZM14.6967 12.3862C14.503 12.9196 13.892 13.6271 13.168 14.1357L13.283 14.2993C14.0246 13.7783 14.6716 13.0413 14.8847 12.4544L14.6967 12.3862ZM14.6907 12.4201V12.4203H14.8907V12.4201H14.6907ZM14.4185 10.3853C14.8344 10.9493 14.9413 11.7124 14.6967 12.386L14.8847 12.4542C15.1516 11.7192 15.036 10.8858 14.5795 10.2666L14.4185 10.3853ZM12.6919 9.65067C13.3447 9.54439 14.0032 9.82204 14.4185 10.3853L14.5795 10.2666C14.1224 9.64664 13.391 9.33422 12.6598 9.45327L12.6919 9.65067ZM11.2383 10.9063C11.4827 10.2332 12.0386 9.75705 12.6919 9.65067L12.6598 9.45327C11.9291 9.57224 11.3174 10.1026 11.0503 10.838L11.2383 10.9063ZM11.2762 13.3947C11.0464 12.4624 11.0367 11.4615 11.2383 10.9063L11.0503 10.838C10.8295 11.4461 10.8477 12.4919 11.082 13.4426L11.2762 13.3947ZM11.1102 13.8439C11.2538 13.7467 11.3179 13.564 11.2762 13.3947L11.082 13.4426C11.105 13.5361 11.0677 13.6312 10.9981 13.6783L11.1102 13.8439ZM10.5944 14.5171C10.6953 14.2371 10.8767 14.0014 11.11 13.844L10.9982 13.6782C10.728 13.8604 10.5208 14.1313 10.4063 14.4493L10.5944 14.5171ZM11.1655 16.7656C10.8682 16.6394 10.6503 16.2861 10.5452 15.8408C10.4411 15.3998 10.4558 14.8988 10.5944 14.5174L10.4064 14.4491C10.2524 14.873 10.239 15.4143 10.3505 15.8868C10.461 16.3549 10.7023 16.7862 11.0874 16.9497L11.1655 16.7656ZM12.1711 16.559C11.7927 16.8161 11.4283 16.8772 11.1656 16.7656L11.0874 16.9497C11.4372 17.0983 11.8751 17.0018 12.2835 16.7244L12.1711 16.559ZM12.9854 15.5439C12.8492 15.9192 12.5369 16.3104 12.1711 16.559L12.2835 16.7244C12.6807 16.4545 13.0215 16.0306 13.1734 15.6122L12.9854 15.5439ZM13.013 14.6011C13.1046 14.9094 13.0948 15.2427 12.9854 15.5439L13.1734 15.6122C13.2974 15.2705 13.3084 14.8934 13.2047 14.5442L13.013 14.6011ZM13.168 14.1357C13.0219 14.2383 12.9617 14.4294 13.013 14.6012L13.2047 14.544C13.1764 14.4493 13.2118 14.3493 13.283 14.2994L13.168 14.1357Z" fill="#EC6461"/>
<path fill-rule="evenodd" clip-rule="evenodd" d="M12.2574 8.74458C12.216 8.74458 12.1747 8.74034 12.1341 8.73192C11.6603 8.63389 11.388 8.00005 11.5142 7.28885C11.64 6.57753 12.1097 6.09726 12.5833 6.1953C13.0569 6.29334 13.3292 6.92722 13.2033 7.63838C13.0883 8.28766 12.6867 8.74458 12.2574 8.74458ZM12.4751 6.80393C12.3622 6.78022 12.1469 7.00883 12.0768 7.40522H12.0768C12.0066 7.80186 12.1296 8.09985 12.2416 8.12319C12.3536 8.14654 12.5697 7.91854 12.6399 7.5219C12.71 7.12526 12.5871 6.82712 12.4751 6.80393Z" fill="#EC6461"/>
<path d="M12.1341 8.73192L12.1544 8.634L12.1544 8.634L12.1341 8.73192ZM12.2574 8.74458V8.64458H12.2574L12.2574 8.74458ZM11.5142 7.28885L11.6127 7.30632L11.6127 7.30627L11.5142 7.28885ZM13.2033 7.63838L13.3018 7.65583L13.3018 7.65582L13.2033 7.63838ZM12.0768 7.40522L11.9783 7.38778L11.9575 7.50522H12.0768V7.40522ZM12.4751 6.80393L12.4546 6.90179L12.4548 6.90185L12.4751 6.80393ZM12.0768 7.40522L12.1753 7.42264L12.1961 7.30522H12.0768V7.40522ZM12.2416 8.12319L12.2212 8.22109L12.2416 8.12319ZM12.6399 7.5219L12.5414 7.50448V7.50448L12.6399 7.5219ZM12.1138 8.82985C12.1611 8.83964 12.2092 8.84458 12.2574 8.84458L12.2574 8.64458C12.2229 8.64458 12.1884 8.64104 12.1544 8.634L12.1138 8.82985ZM11.4157 7.27137C11.3498 7.64322 11.3869 7.99966 11.5073 8.2798C11.6275 8.55953 11.8357 8.7723 12.1138 8.82985L12.1544 8.634C11.9587 8.59351 11.7939 8.44034 11.691 8.20085C11.5883 7.96176 11.5524 7.64568 11.6127 7.30632L11.4157 7.27137ZM12.6036 6.09738C12.3245 6.03961 12.0559 6.15487 11.8469 6.36866C11.638 6.58223 11.4815 6.89964 11.4157 7.27143L11.6127 7.30627C11.6727 6.96674 11.814 6.68836 11.9899 6.50848C12.1655 6.32882 12.3685 6.25296 12.563 6.29323L12.6036 6.09738ZM13.3018 7.65582C13.3676 7.28401 13.3303 6.92758 13.21 6.64745C13.0898 6.36772 12.8816 6.15494 12.6036 6.09738L12.563 6.29323C12.7586 6.3337 12.9233 6.48688 13.0262 6.7264C13.129 6.96551 13.1649 7.2816 13.1048 7.62094L13.3018 7.65582ZM12.2574 8.84458C12.5092 8.84458 12.7425 8.71079 12.9239 8.50025C13.1058 8.28927 13.2416 7.99541 13.3018 7.65583L13.1048 7.62093C13.05 7.93062 12.9275 8.18986 12.7725 8.36967C12.6171 8.5499 12.435 8.64458 12.2574 8.64458V8.84458ZM12.1752 7.42265C12.208 7.23783 12.2739 7.09638 12.3403 7.00648C12.3737 6.96127 12.4052 6.93192 12.4298 6.91583C12.4567 6.89825 12.4635 6.90368 12.4546 6.90179L12.4956 6.70606C12.4302 6.69232 12.3678 6.71743 12.3204 6.74844C12.2707 6.78094 12.2228 6.82907 12.1795 6.88759C12.0926 7.00517 12.0158 7.17622 11.9783 7.38778L12.1752 7.42265ZM12.0768 7.30522H12.0768V7.50522H12.0768V7.30522ZM12.262 8.0253C12.2703 8.02703 12.2607 8.0282 12.2406 7.99961C12.2225 7.97369 12.2029 7.93283 12.1871 7.87695C12.1556 7.76576 12.1426 7.60746 12.1753 7.42264L11.9783 7.38779C11.9409 7.59962 11.9542 7.78863 11.9947 7.93144C12.0148 8.00255 12.0426 8.06535 12.0768 8.11427C12.1091 8.16051 12.1569 8.20768 12.2212 8.22109L12.262 8.0253ZM12.5414 7.50448C12.5087 7.68934 12.4426 7.83068 12.3761 7.92052C12.3426 7.9657 12.3111 7.99508 12.2864 8.0112C12.2594 8.02888 12.2527 8.02336 12.262 8.0253L12.2212 8.22109C12.2865 8.2347 12.3488 8.20943 12.396 8.17854C12.4456 8.14608 12.4935 8.09804 12.5368 8.03957C12.6238 7.92209 12.7009 7.75111 12.7383 7.53932L12.5414 7.50448ZM12.4548 6.90185C12.4464 6.90011 12.456 6.89887 12.476 6.92745C12.4942 6.95336 12.5138 6.99422 12.5296 7.05011C12.5611 7.16132 12.5741 7.31966 12.5414 7.50448L12.7383 7.53932C12.7758 7.3275 12.7625 7.13845 12.722 6.99563C12.7019 6.92451 12.6741 6.86169 12.6399 6.81278C12.6075 6.76654 12.5598 6.71934 12.4954 6.706L12.4548 6.90185Z" fill="#EC6461"/>
<path d="M13.6561 8.62427C13.8049 8.68242 13.9692 8.59919 14.023 8.43832L14.2592 7.7314C14.3131 7.57039 14.236 7.39268 14.0871 7.33447C13.9382 7.27626 13.7738 7.35959 13.72 7.5206L13.4838 8.22752C13.458 8.30483 13.4617 8.39007 13.494 8.46447C13.5263 8.53888 13.5846 8.59636 13.6561 8.62427Z" fill="#EC6461" stroke="#EC6461" stroke-width="0.2"/>
<path d="M14.4053 9.08141C14.4714 9.12201 14.5498 9.13256 14.623 9.11072C14.6963 9.08889 14.7586 9.03646 14.7962 8.96498L15.2735 8.05636C15.3246 7.96005 15.3241 7.84155 15.2723 7.74572C15.2204 7.6499 15.1251 7.59137 15.0224 7.5923C14.9198 7.59322 14.8254 7.65346 14.775 7.75021L14.2977 8.65889C14.2195 8.8077 14.2677 8.99686 14.4053 9.08141Z" fill="#EC6461" stroke="#EC6461" stroke-width="0.2"/>
<path d="M14.9927 9.69834C15.1131 9.8094 15.294 9.79388 15.3968 9.66368L15.9299 8.98796C15.9973 8.90385 16.0178 8.78713 15.9836 8.68215C15.9494 8.57717 15.8658 8.50006 15.7646 8.48012C15.6633 8.46018 15.5599 8.50047 15.4937 8.58569L14.9607 9.26141C14.9113 9.32395 14.887 9.40511 14.893 9.48706C14.899 9.569 14.9349 9.645 14.9927 9.69834Z" fill="#EC6461" stroke="#EC6461" stroke-width="0.2"/>
<path d="M16.3034 9.5624C16.183 9.45134 16.0021 9.46686 15.8994 9.59706L15.4694 10.1417C15.4014 10.2258 15.3804 10.3429 15.4145 10.4483C15.4487 10.5537 15.5326 10.6311 15.6342 10.6509C15.7359 10.6707 15.8395 10.6299 15.9055 10.544L16.3355 9.99933C16.3848 9.93679 16.4092 9.85563 16.4032 9.77369C16.3971 9.69174 16.3613 9.61574 16.3034 9.5624Z" fill="#EC6461" stroke="#EC6461" stroke-width="0.2"/>
<path d="M6.56886 3.54317H7.07047C7.22877 3.54317 7.3571 3.40442 7.3571 3.23326C7.3571 3.06209 7.22877 2.92334 7.07047 2.92334H6.56886C6.41056 2.92334 6.28223 3.06209 6.28223 3.23326C6.28223 3.40442 6.41056 3.54317 6.56886 3.54317Z" fill="#EC6461" stroke="#EC6461" stroke-width="0.2"/>
<path d="M8.36036 3.54317H9.65021C9.80852 3.54317 9.93685 3.40442 9.93685 3.23326C9.93685 3.06209 9.80852 2.92334 9.65021 2.92334H8.36036C8.20206 2.92334 8.07373 3.06209 8.07373 3.23326C8.07373 3.40442 8.20206 3.54317 8.36036 3.54317Z" fill="#EC6461" stroke="#EC6461" stroke-width="0.2"/>
<path d="M10.94 3.54317H11.4416C11.5999 3.54317 11.7282 3.40442 11.7282 3.23326C11.7282 3.06209 11.5999 2.92334 11.4416 2.92334H10.94C10.7817 2.92334 10.6533 3.06209 10.6533 3.23326C10.6533 3.40442 10.7817 3.54317 10.94 3.54317Z" fill="#EC6461" stroke="#EC6461" stroke-width="0.2"/>
</svg>
